<?xml version="1.0" standalone="no"?>
<!DOCTYPE svg PUBLIC "-//W3C//DTD SVG 20010904//EN"
 "http://www.w3.org/TR/2001/REC-SVG-20010904/DTD/svg10.dtd">
<svg version="1.0" xmlns="http://www.w3.org/2000/svg"
 width="500.000000pt" height="500.000000pt" viewBox="0 0 500.000000 500.000000"
 preserveAspectRatio="xMidYMid meet">

<g transform="translate(0.000000,500.000000) scale(0.100000,-0.100000)"
fill="#000000" stroke="none">
<path d="M2030 3908 c0 -8 7 -30 17 -48 14 -30 15 -38 2 -74 -12 -37 -23 -46
-96 -85 -151 -80 -279 -207 -347 -343 -46 -91 -60 -163 -53 -273 7 -104 24
-169 74 -278 30 -64 40 -77 57 -75 16 2 20 9 18 28 -1 14 -5 77 -8 140 -5 91
-3 119 8 134 14 18 16 18 58 -4 27 -14 64 -23 95 -24 45 -1 50 1 53 22 2 12
-1 22 -7 22 -24 0 -90 73 -111 123 -13 28 -24 74 -24 100 -1 42 3 52 28 74 27
23 36 25 84 19 60 -7 122 -30 122 -45 0 -5 -21 -28 -47 -50 -60 -54 -50 -66
55 -66 66 0 86 4 137 30 59 29 63 30 185 26 147 -4 266 15 380 60 105 42 105
43 86 120 -42 163 -157 272 -331 315 -59 14 -76 24 -110 59 -63 66 -133 97
-237 103 -73 4 -88 2 -88 -10z m125 -29 c71 -13 121 -37 155 -74 23 -26 24
-27 4 -21 -20 6 -167 -7 -209 -19 -19 -6 -20 -1 -20 60 0 36 3 65 6 65 3 0 32
-5 64 -11z m293 -155 c169 -44 286 -155 308 -293 6 -39 5 -40 -32 -56 -76 -32
-206 -65 -282 -71 l-78 -7 -42 48 c-64 73 -77 157 -36 236 14 29 12 49 -6 49
-17 0 -40 -46 -51 -101 -13 -67 -2 -116 40 -180 17 -24 29 -45 27 -46 -6 -7
-132 20 -145 30 -30 25 -53 97 -49 155 2 38 -1 56 -9 59 -35 12 -41 -115 -9
-178 17 -34 21 -34 -69 0 -46 17 -50 22 -55 57 -3 27 -11 40 -22 42 -14 3 -18
-4 -18 -30 l0 -33 -65 0 c-60 0 -67 -2 -97 -33 -30 -30 -33 -38 -33 -95 0 -68
32 -148 80 -199 36 -39 31 -42 -26 -12 -93 47 -120 21 -129 -126 l-5 -95 -27
80 c-72 219 -30 401 133 578 128 139 258 208 459 241 42 7 178 -5 238 -20z
m-304 -446 c-7 -11 -103 -38 -136 -38 l-29 0 32 38 32 38 53 -15 c29 -9 50
-19 48 -23z"/>
<path d="M2455 3575 c-33 -32 -32 -68 2 -95 45 -35 107 -8 115 52 10 64 -68
92 -117 43z m81 -30 c8 -20 -13 -45 -38 -45 -24 0 -34 26 -18 45 16 19 49 19
56 0z"/>
<path d="M3296 3682 c-3 -5 0 -39 5 -77 13 -81 8 -210 -8 -226 -9 -9 -23 -6
-58 11 -64 31 -126 37 -145 15 -13 -16 -13 -19 4 -29 80 -46 138 -141 139
-227 1 -45 -3 -55 -28 -77 -25 -21 -36 -24 -79 -19 -28 3 -71 13 -95 23 l-44
18 53 48 c66 62 59 73 -48 73 -65 0 -87 -5 -137 -30 -58 -28 -64 -29 -185 -26
-146 4 -265 -15 -381 -60 -99 -38 -105 -45 -90 -106 43 -173 170 -295 348
-334 48 -11 66 -22 105 -62 65 -66 122 -90 231 -95 95 -5 100 -1 72 48 -37 65
-9 116 92 169 104 54 180 115 253 203 141 171 179 336 125 549 -32 126 -106
248 -129 211z m84 -182 c34 -98 39 -257 12 -347 -62 -204 -277 -398 -507 -458
-132 -34 -342 -13 -457 46 -85 43 -172 158 -192 255 -7 30 -5 32 41 52 81 35
193 62 278 69 l80 6 38 -42 c21 -23 42 -53 47 -67 15 -39 12 -132 -6 -165 -8
-17 -13 -37 -10 -45 19 -49 65 43 66 129 0 66 -19 119 -58 161 l-27 28 60 -7
c33 -4 71 -12 84 -18 42 -20 64 -71 65 -148 1 -38 4 -69 9 -69 4 0 12 0 17 0
15 0 12 126 -5 166 -16 40 -18 40 75 4 41 -16 45 -21 50 -56 6 -50 34 -54 38
-6 3 31 4 32 42 26 49 -8 104 10 130 43 45 57 14 211 -58 286 -31 33 -15 35
44 6 48 -25 65 -21 91 18 14 21 18 47 18 120 0 50 3 89 6 85 4 -4 16 -36 29
-72z m-396 -355 c-33 -35 -33 -35 -83 -24 -28 6 -51 13 -51 15 0 13 90 44 126
44 l41 0 -33 -35z m-76 -515 c-6 -17 -8 -45 -4 -62 l6 -31 -52 6 c-57 7 -145
46 -173 77 -18 20 -17 20 51 21 38 0 87 4 109 8 73 16 75 15 63 -19z"/>
<path d="M2449 2931 c-34 -34 -37 -63 -9 -91 51 -51 144 9 119 77 -9 23 -38
43 -64 43 -9 0 -30 -13 -46 -29z m77 -26 c8 -20 -13 -45 -38 -45 -24 0 -34 26
-18 45 16 19 49 19 56 0z"/>
<path d="M1000 2275 c0 -24 3 -25 55 -25 l55 0 0 -145 0 -145 30 0 30 0 0 145
0 145 55 0 c52 0 55 1 55 25 l0 25 -140 0 -140 0 0 -25z"/>
<path d="M1310 2130 l0 -170 30 0 30 0 0 76 c0 91 10 114 50 114 40 0 50 -23
50 -114 l0 -76 31 0 31 0 -4 95 c-3 82 -7 98 -28 120 -25 27 -75 34 -111 15
-18 -10 -19 -7 -19 50 l0 60 -30 0 -30 0 0 -170z"/>
<path d="M1950 2130 l0 -170 30 0 30 0 0 70 c0 67 1 70 24 70 83 0 136 37 136
95 0 75 -44 105 -155 105 l-65 0 0 -170z m153 103 c11 -7 8 -48 -5 -61 -7 -7
-29 -12 -50 -12 l-38 0 0 46 0 46 43 -7 c23 -4 45 -9 50 -12z"/>
<path d="M2210 2130 l0 -170 30 0 30 0 0 78 c0 84 14 112 56 112 36 0 44 -20
44 -107 l0 -83 30 0 30 0 0 79 c0 87 -13 137 -40 151 -24 13 -76 13 -101 0
-18 -10 -19 -7 -19 50 l0 60 -30 0 -30 0 0 -170z"/>
<path d="M2480 2275 c0 -21 5 -25 30 -25 25 0 30 4 30 25 0 21 -5 25 -30 25
-25 0 -30 -4 -30 -25z"/>
<path d="M2810 2130 l0 -170 30 0 30 0 0 78 c0 84 14 112 56 112 36 0 44 -20
44 -107 l0 -83 30 0 30 0 0 79 c0 87 -13 137 -40 151 -24 13 -76 13 -101 0
-18 -10 -19 -7 -19 50 l0 60 -30 0 -30 0 0 -170z"/>
<path d="M3200 2130 l0 -170 30 0 29 0 3 115 3 116 69 -116 c62 -104 71 -115
97 -115 l29 0 0 170 0 170 -30 0 -30 0 0 -117 0 -118 -71 118 c-64 107 -73
117 -100 117 l-29 0 0 -170z"/>
<path d="M3818 2280 c-19 -15 -28 -31 -28 -51 0 -22 -5 -29 -20 -29 -15 0 -20
-7 -20 -25 0 -18 5 -25 20 -25 18 0 20 -7 20 -75 0 -91 17 -115 80 -115 36 0
40 3 40 25 0 21 -5 25 -30 25 l-30 0 0 70 0 70 30 0 c25 0 30 4 30 25 0 21 -5
25 -29 25 -29 0 -30 2 -33 51 l-3 51 -27 -22z"/>
<path d="M1644 2198 c-16 -4 -41 -19 -55 -34 -20 -21 -24 -36 -24 -86 0 -55 3
-62 33 -89 26 -24 41 -29 81 -29 33 0 56 6 72 19 22 18 23 21 8 36 -13 13 -21
15 -37 6 -31 -16 -67 -13 -85 7 -10 10 -17 22 -17 25 0 4 36 7 80 7 91 0 99 7
81 63 -21 63 -73 92 -137 75z m64 -54 c40 -28 28 -44 -33 -44 -59 0 -67 8 -35
40 24 24 38 25 68 4z"/>
<path d="M2480 2080 l0 -120 30 0 30 0 0 120 0 120 -30 0 -30 0 0 -120z"/>
<path d="M2609 2179 c-14 -14 -19 -30 -17 -52 3 -32 8 -36 97 -77 24 -11 24
-28 0 -40 -18 -10 -26 -8 -50 9 -15 11 -35 18 -43 15 -44 -17 15 -74 76 -74
51 0 74 13 86 49 17 49 -10 83 -90 111 -19 6 -26 14 -22 25 8 19 48 20 64 1 9
-12 17 -13 37 -3 l25 11 -26 23 c-36 31 -107 32 -137 2z"/>
<path d="M3557 2179 c-15 -11 -32 -38 -38 -60 -16 -50 1 -109 38 -138 32 -26
101 -28 145 -5 l31 16 -21 21 c-17 16 -24 18 -36 8 -23 -19 -76 -9 -94 17
l-14 22 86 0 c85 0 86 0 86 25 0 38 -25 92 -48 104 -35 18 -106 13 -135 -10z
m105 -36 c33 -29 22 -43 -32 -43 -43 0 -50 3 -50 20 0 36 51 51 82 23z"/>
</g>
</svg>
